<?xml version="1.0" encoding="utf-8"?>
<!-- Generator: Adobe Illustrator 16.0.4, SVG Export Plug-In . SVG Version: 6.00 Build 0)  -->
<!DOCTYPE svg PUBLIC "-//W3C//DTD SVG 1.1//EN" "http://www.w3.org/Graphics/SVG/1.1/DTD/svg11.dtd">
<svg version="1.1" id="Capa_1" xmlns="http://www.w3.org/2000/svg" xmlns:xlink="http://www.w3.org/1999/xlink" x="0px" y="0px"
	 width="977px" height="167px" viewBox="0 0 977 167" enable-background="new 0 0 977 167" xml:space="preserve">
<path fill="#0F3C5C" d="M110.631,77.896l-87.585-0.367l0.059,13.939l74.869,0.25c0,0,8.313,0.485,8.313,9.298H36.812
	c0,0-19.58,2.448-17.625,21.04c1.969,18.592,17.126,19.57,17.126,19.57h90.04v-45.99C126.353,95.637,125.861,80.465,110.631,77.896z
	 M106.779,127.689l-64.586-0.246c0,0-5.38,0.732-6.115-5.387c-0.735-6.112,5.866-6.358,5.866-6.358h64.836V127.689z"/>
<path fill="#0F3C5C" d="M331.562,77.896l-87.585-0.367l0.053,13.939l74.869,0.25c0,0,8.32,0.485,8.32,9.298h-69.488
	c0,0-19.567,2.448-17.612,21.04c1.956,18.592,17.126,19.57,17.126,19.57h90.04v-45.99C347.285,95.637,346.792,80.465,331.562,77.896
	z M327.705,127.689l-64.593-0.246c0,0-5.38,0.732-6.115-5.387c-0.735-6.112,5.879-6.358,5.879-6.358h64.83V127.689z"/>
<path fill="#0F3C5C" d="M943.209,77.896l-87.592-0.367l0.066,13.939l74.868,0.25c0,0,8.32,0.485,8.32,9.298h-69.488
	c0,0-19.573,2.448-17.611,21.04c1.955,18.592,16.384,20.309,16.384,20.309l90.775,0.117V95.637
	C958.932,95.637,958.439,80.465,943.209,77.896z M939.357,127.689l-64.593-0.246c0,0-5.381,0.732-6.116-5.387
	c-0.728-6.112,5.88-6.358,5.88-6.358h64.829V127.689z"/>
<path fill="#0F3C5C" d="M232.534,124.504v17.615h-72.421c0,0-25.689-2.451-27.159-32.293c-1.47-29.853,21.286-31.565,21.286-31.565
	h78.543v13.943h-70.958c0,0-9.777,3.679-8.556,17.376c1.22,13.7,8.071,15.16,8.071,15.16L232.534,124.504z"/>
<path fill="#0F3C5C" d="M846.143,124.504v17.979l-72.264,0.047c0,0-25.854-2.861-27.316-32.703
	c-1.47-29.853,21.286-31.565,21.286-31.565h78.53v13.943h-70.945c0,0-9.783,3.679-8.557,17.376c1.221,13.7,8.071,15.16,8.071,15.16
	L846.143,124.504z"/>
<path fill="#0F3C5C" d="M446.976,51.108v27.152h-72.29c0,0-20.184,4.771-20.184,30.827s20.905,33.395,20.905,33.395h89.37
	l-0.184-91.374H446.976z M447.344,124.871H382.39c0,0-7.704-4.77-8.438-15.045c-0.735-10.279,6.969-17.251,9.908-17.622h63.484
	V124.871z"/>
<path fill="#0F3C5C" d="M572.488,77.906l0.131,13.812h-67.533c0,0-10.768,0.978-10.768,9.79h78.786v13.697h-78.786
	c0,0,0.979,12.237,12.231,12.237h67.034v14.676h-80.236c0,0-22.513-10.765-22.021-33.764c0.485-22.992,22.191-30.515,22.191-30.515
	L572.488,77.906z"/>
<path fill="#0F3C5C" d="M579.666,77.906h119.285c0,0,12.625,2.067,12.625,13.812v50.764h-18.104V96.61c0,0-0.492-4.896-5.381-4.406
	h-32.789l-0.053,50.278l-19.18-0.039l0.15-50.725h-38.654v50.764h-18.11L579.666,77.906z"/>
<rect x="717.441" y="77.529" fill="#0F3C5C" width="23.131" height="64.953"/>
<rect x="717.081" y="54.038" fill="#0F3C5C" width="23.491" height="17.254"/>
<polygon fill="#0F3C5C" points="535.887,53.395 517.868,52.021 560.52,21.217 551.562,70.515 542.678,56.922 532.554,73.513 
	526.307,69.104 "/>
</svg>
